<?xml version="1.0" encoding="UTF-8"?>
<svg xmlns="http://www.w3.org/2000/svg" xml:space="preserve" version="1.1" style="shape-rendering:geometricPrecision; text-rendering:geometricPrecision; image-rendering:optimizeQuality; fill-rule:evenodd; clip-rule:evenodd"
viewBox="4100 11100 14300 5400"
 xmlns:xlink="http://www.w3.org/1999/xlink">
 <defs>
  <style type="text/css">
   <![CDATA[
    .fil0 {fill:#ffffff}
    .fil6 {fill:url(#id0)}
    .fil4 {fill:url(#id1)}
    .fil3 {fill:url(#id2)}
    .fil2 {fill:url(#id3)}
    .fil5 {fill:url(#id4);fill-rule:nonzero}
    .fil1 {fill:url(#id5);fill-rule:nonzero}
   ]]>
  </style>
  <linearGradient id="id0" gradientUnits="userSpaceOnUse" x1="3992.96" y1="13692.44" x2="10136.56" y2="13692.44">
   <stop offset="0" style="stop-opacity:1; stop-color:#3683C4"/>
   <stop offset="1" style="stop-opacity:1; stop-color:#41A4DC"/>
  </linearGradient>
  <linearGradient id="id1" gradientUnits="userSpaceOnUse" xlink:href="#id0" x1="10277.8" y1="13251.56" x2="10764.52" y2="13251.56">
  </linearGradient>
  <linearGradient id="id2" gradientUnits="objectBoundingBox" xlink:href="#id0" x1="0%" y1="50.0001%" x2="104.361%" y2="50.0001%">
  </linearGradient>
  <linearGradient id="id3" gradientUnits="userSpaceOnUse" xlink:href="#id0" x1="7431.27" y1="12809.66" x2="8681.07" y2="12809.66">
  </linearGradient>
  <linearGradient id="id4" gradientUnits="userSpaceOnUse" x1="12455.92" y1="13892.82" x2="18218.23" y2="13892.82">
   <stop offset="0" style="stop-opacity:1; stop-color:#FEFEFE"/>
   <stop offset="1" style="stop-opacity:1; stop-color:#B6B4B4"/>
  </linearGradient>
  <linearGradient id="id5" gradientUnits="userSpaceOnUse" xlink:href="#id4" x1="5485.67" y1="13253.39" x2="7937.41" y2="13253.39">
  </linearGradient>
 </defs>
 <g id="Katman_x0020_1">
  <metadata id="CorelCorpID_0Corel-Layer"/>
  <polygon class="fil0" points="15137.96,14082.76 14922.35,14059.82 14927.45,14060.14 14932.87,14060.25 14942.84,14060.25 15158.87,14083.18 15148.71,14083.18 15143.18,14083.08 "/>
  <polygon class="fil1" points="7557.88,13477.68 7370.53,13026.48 7277.28,12802.17 7090.35,12350.96 6771.5,12350.96 6771.5,12350.96 6651.18,12350.96 6651.18,12350.96 6332.76,12350.96 6145.4,12802.17 6052.58,13026.48 5865.22,13477.68 5583.76,14155.78 6072.35,14155.78 6353.81,13477.68 6540.74,13026.48 6633.99,12802.17 6789.12,12802.17 6881.94,13026.48 7069.29,13477.68 7350.76,14155.78 7839.35,14155.78 "/>
  <polygon class="fil2" points="8486.96,12778.09 8094.22,12350.94 7481.41,12350.94 8180.58,13111.56 8324.53,13268.38 8630.94,12934.93 "/>
  <path class="fil3" d="M11845.93 12362.78c-42.97,-10.31 -87.68,-15.46 -133.65,-15.46l-793.52 0 0 451.2 753.55 0c95.84,0 173.62,77.8 173.62,173.62l0 555.19c0,95.81 -77.79,173.6 -173.62,173.6l-753.55 0 0 451.22 793.52 0c20.63,0 40.82,-0.87 61.02,-3.01 24.49,-2.58 49,-6.88 72.63,-12.47 216.58,-50.26 387.17,-221.72 436.6,-438.73 9.45,-42.12 14.6,-85.53 14.6,-130.64l0 -635.56c0,-276.74 -192.51,-508.79 -451.2,-568.96l0 0z"/>
  <polygon class="fil4" points="10297.33,12354.11 10745,12354.11 10745,14149 10297.33,14149 "/>
  <polygon class="fil3" points="9501.55,12350.94 9382.52,12480.3 9113.06,12773.78 8951.52,12949.55 8806.25,13107.27 8797.67,13116.71 8797.67,13116.71 8491.29,13449.73 8491.29,13450.16 8500.3,13459.63 8563.46,13528.38 8572.04,13537.84 8572.04,14155.78 9023.26,14155.78 9023.26,13538.25 9032.31,13528.38 9104.05,13450.16 9113.06,13440.72 9419.48,13107.27 10114.32,12350.94 "/>
  <path class="fil5" d="M12686.45 13629.86l323.71 0c20.85,0 43.63,1.93 68.35,5.67 24.71,3.73 46.98,12.1 66.93,24.84 19.95,12.87 35.52,29.09 46.46,48.78 11.07,19.56 16.61,41.7 16.61,66.42 0,39.9 -14.29,72.33 -42.74,97.17 -28.57,24.72 -62.29,40.93 -101.16,48.4l107.99 125.88 4.5 5.66c6.95,8.5 13.39,14.93 19.18,19.05 5.79,4.12 11.58,7.08 17.25,8.88 5.79,1.68 13.9,2.58 24.19,2.58l22.53 0 0 72.59 -168.36 0 -168.61 -226.28 -43.76 0 0 104.78c0,18.02 1.03,29.47 2.96,34.36 2.06,4.89 5.28,8.63 9.65,10.94 4.38,2.45 13.26,3.61 26.65,3.61l24.07 0 0 72.59 -256.4 0 0 -72.59 23.56 0c12.35,0 21.1,-1.29 26.25,-3.99 5.28,-2.58 9.14,-6.57 11.59,-11.84 1.28,-3.09 1.93,-12.49 1.93,-28.32l0 -296.17c0,-11.58 -0.9,-19.82 -2.83,-24.71 -1.93,-4.89 -5.02,-8.11 -9.27,-9.65 -6.05,-2.71 -13,-4.12 -20.85,-4.12l-10.69 0.38 -19.69 0 0 -74.91zm193.07 86.5l0 135.92 77.87 0c30.63,0 53.54,-2.83 68.73,-8.5 15.19,-5.66 26.52,-13.77 34.24,-24.19 7.59,-10.56 11.45,-23.43 11.45,-38.49 0,-13.77 -3.6,-25.61 -10.68,-35.52 -7.21,-9.91 -17.37,-17.25 -30.5,-22.01 -13.13,-4.77 -34.76,-7.21 -64.62,-7.21l-86.49 0zm771.9 -86.5l438.9 0 59.98 167.07 -68.34 24.59c-11.59,-27.42 -25.1,-49.43 -40.55,-66.03 -15.44,-16.74 -32.56,-27.8 -51.22,-33.34 -18.67,-5.41 -40.55,-8.11 -65.39,-8.11l-80.32 0 0 132.06 26.13 0c19.57,0 32.82,-1.42 39.65,-4.38 6.82,-2.83 11.71,-7.46 14.67,-13.64 2.96,-6.18 4.5,-18.41 4.5,-36.81l0 -20.08 67.96 0 0 222.41 -67.96 0 0 -22.78c0,-15.44 -1.8,-26.77 -5.4,-33.85 -3.61,-7.08 -8.5,-11.97 -14.68,-14.42 -6.3,-2.57 -20.07,-3.86 -41.44,-3.86l-23.43 0 0 120.86c0,12.75 0.65,20.6 1.93,23.43 1.16,2.7 3.74,4.89 7.34,6.31 3.6,1.54 11.46,2.31 23.56,2.31l44.14 0c32.95,0 60.63,-4.76 83.28,-14.16 22.65,-9.52 42.86,-24.84 60.49,-45.82 17.77,-21.11 31.41,-46.2 40.93,-75.16l68.87 23.68 -68.99 195.64 -454.61 0 0 -72.59 13.12 0c17.64,0 29.48,-1.29 35.53,-3.74 6.05,-2.57 10.3,-6.95 12.74,-13.25 1.29,-3.74 1.93,-14.42 1.93,-32.05l0 -286.77c0,-15.58 -1.03,-25.87 -3.22,-30.64 -2.05,-4.76 -5.4,-8.36 -10.03,-10.68 -4.51,-2.44 -13.39,-3.6 -26.65,-3.6l-23.42 0 0 -72.6zm916.56 0l256.4 0 0 72.6 -16.73 0c-16.22,0 -26.13,0.9 -29.87,2.7 -5.92,2.7 -10.16,6.56 -12.87,11.58 -2.57,5.02 -3.86,14.55 -3.86,28.32l0 139.91 163.59 -151.75c7.34,-6.82 11.72,-11.46 13.26,-13.9 1.42,-2.32 2.19,-4.51 2.19,-6.18 0,-3.6 -1.42,-6.31 -4.38,-7.98 -2.83,-1.8 -10.17,-2.7 -22.14,-2.7l-21.23 0 0 -72.6 238.63 0 0 72.6 -7.98 0c-11.07,0 -18.79,0.51 -23.04,1.67 -4.25,1.16 -9.53,3.6 -15.7,7.34 -6.18,3.86 -14.16,10.04 -23.94,18.53l-127.43 110.18 152.01 204.91c13.13,17.63 22.65,28.06 28.7,31.27 8.11,4.51 19.82,6.83 35.01,6.83l10.17 0 0 72.59 -266.43 0 0 -72.59 10.68 0c19.44,0 31.28,-0.9 35.52,-2.71 4.12,-1.67 6.18,-3.99 6.18,-6.82 0,-2.96 -3.86,-10.17 -11.71,-21.62l-92.93 -131.67 -79.03 68.34 0 53.29c0,13.13 1.29,22.14 3.73,27.16 2.45,5.15 6.05,8.62 10.56,10.81 4.63,2.19 13.9,3.22 27.8,3.22l21.24 0 0 72.59 -256.4 0 0 -72.59 19.31 0c14.93,0 24.97,-1.16 29.99,-3.61 5.02,-2.31 8.75,-6.18 10.94,-11.45 2.06,-4.25 3.09,-14.68 3.09,-31.02l0 -287.54c0,-15.58 -1.16,-26 -3.48,-31.28 -2.18,-5.28 -5.92,-9.27 -10.94,-11.84 -5.02,-2.71 -14.15,-3.99 -27.28,-3.99l-21.63 0 0 -72.6zm981.96 0l256.4 0 0 72.6 -22.53 0c-12.48,0 -20.33,0.64 -23.55,1.93 -6.05,2.44 -10.43,6.31 -13.13,11.45 -2.7,5.15 -4.12,13.39 -4.12,24.59l0 299.9c0,12.09 0.52,19.43 1.67,22.26 1.16,2.71 3.48,4.89 6.95,6.57 3.61,1.67 10.3,2.44 20.34,2.44 33.72,0 60.75,-4.37 81.22,-13.13 20.46,-8.88 38.87,-22.91 55.34,-42.34 16.48,-19.44 30.64,-45.82 42.48,-79.29l69.25 23.81 -69.25 195.13 -401.07 0 0 -72.59 25.1 0c10.3,0 18.02,-1.42 23.3,-4.12 5.15,-2.83 9.01,-6.57 11.33,-11.2 2.44,-4.63 3.6,-12.74 3.6,-24.33l0 -298.09c0,-12.62 -1.16,-21.63 -3.6,-27.16 -2.32,-5.54 -5.67,-9.53 -10.04,-12.1 -4.38,-2.45 -11.72,-3.73 -22.01,-3.73l-27.68 0 0 -72.6zm1042.97 0l118.8 0 157.93 406.22c8.62,21.36 16.21,34.62 22.78,39.64 6.69,5.02 18.92,7.47 36.68,7.47l0 72.59 -248.67 0 0 -72.59 15.06 -0.39c13.77,0 23.43,-1.8 28.96,-5.53 5.54,-3.61 8.24,-8.11 8.24,-13.39 0,-4.51 -2.32,-13.77 -7.21,-27.93l-16.09 -47.75 -159.34 0 -19.7 53.16c-3.99,11.32 -6.05,18.66 -6.05,22.26 0,3.99 1.42,7.6 4.38,10.94 2.83,3.22 7.59,5.67 14.16,7.08 4.25,1.03 16.22,1.55 35.65,1.55l0 72.59 -203.88 0 0 -72.59c13.13,0 22.66,-1.16 28.7,-3.35 5.93,-2.32 10.95,-5.66 14.81,-10.17 3.86,-4.5 8.23,-13 13,-25.23l161.79 -414.58zm-15.19 283.43l104.26 0 -50.97 -143.9 -53.29 143.9zm743.58 -283.43l238.24 0 91.52 318.82 93.83 -318.82 242.88 0 0 72.6 -26 0c-14.03,0 -23.81,2.96 -29.22,8.88 -5.41,5.92 -8.11,16.99 -8.11,33.33l0 298.87c0,13.13 0.77,21.24 2.32,24.59 2.19,5.02 5.4,8.49 9.39,10.55 5.54,2.96 12.75,4.51 21.89,4.51l29.73 0 0 72.59 -253.31 0 0 -72.59 19.57 0c14.41,0 24.07,-1.16 29.09,-3.35 5.02,-2.32 8.75,-5.79 11.07,-10.43 2.44,-4.63 3.6,-13.25 3.6,-25.87l0 -323.71 -128.2 435.95 -72.59 0 -124.34 -421.92 0 319.85c0,7.34 1.29,13 3.86,16.99 2.71,3.99 6.44,7.08 11.2,9.27 4.89,2.19 12.62,3.22 23.3,3.22l24.97 0 0 72.59 -214.69 0 0 -72.59 21.24 0c13.38,0 22.52,-1.16 27.54,-3.61 4.89,-2.31 8.5,-6.18 10.94,-11.32 2.45,-5.15 3.6,-14.68 3.6,-28.45l0 -295.14c0,-13.51 -0.9,-22.39 -2.7,-26.38 -2.19,-5.54 -5.66,-9.53 -10.17,-12.1 -4.63,-2.45 -11.71,-3.73 -21.62,-3.73l-28.83 0 0 -72.6z"/>
  <path class="fil6" d="M5115.59 13774.18c-174.64,-1519.27 977.5,-2946.27 2812.55,-2546.24 -1895.46,-756.2 -3524.91,661.08 -3676.7,2226.4 -176.24,1817.62 1620.15,3167.01 3344.44,2871.4 1070.91,-183.59 2063.67,-966.59 2294.27,-2597.64 -380.38,1530.64 -1717.61,2318.72 -2956.26,2056.78 -1022.46,-216.22 -1700.38,-984.84 -1818.3,-2010.7z"/>
 </g>
</svg>
